<svg width="71" height="110" viewBox="0 0 71 110" fill="none" xmlns="http://www.w3.org/2000/svg">
<path d="M33.156 108.296C27.612 108.296 22.716 107.36 18.468 105.488C14.22 103.544 10.872 100.808 8.424 97.28C5.976 93.68 4.716 89.324 4.644 84.212H19.224C19.368 87.74 20.628 90.728 23.004 93.176C25.452 95.552 28.8 96.74 33.048 96.74C36.72 96.74 39.636 95.876 41.796 94.148C43.956 92.348 45.036 89.972 45.036 87.02C45.036 83.924 44.064 81.512 42.12 79.784C40.248 78.056 37.728 76.652 34.56 75.572C31.392 74.492 28.008 73.34 24.408 72.116C18.576 70.1 14.112 67.508 11.016 64.34C7.992 61.172 6.48 56.96 6.48 51.704C6.408 47.24 7.452 43.424 9.612 40.256C11.844 37.016 14.868 34.532 18.684 32.804C22.5 31.004 26.892 30.104 31.86 30.104C36.9 30.104 41.328 31.004 45.144 32.804C49.032 34.604 52.056 37.124 54.216 40.364C56.448 43.604 57.636 47.456 57.78 51.92H42.984C42.912 49.256 41.868 46.916 39.852 44.9C37.908 42.812 35.172 41.768 31.644 41.768C28.62 41.696 26.064 42.452 23.976 44.036C21.96 45.548 20.952 47.78 20.952 50.732C20.952 53.252 21.744 55.268 23.328 56.78C24.912 58.22 27.072 59.444 29.808 60.452C32.544 61.46 35.676 62.54 39.204 63.692C42.948 64.988 46.368 66.5 49.464 68.228C52.56 69.956 55.044 72.26 56.916 75.14C58.788 77.948 59.724 81.584 59.724 86.048C59.724 90.008 58.716 93.68 56.7 97.064C54.684 100.448 51.696 103.184 47.736 105.272C43.776 107.288 38.916 108.296 33.156 108.296Z" fill="#05FDD8"/>
<path d="M39.156 108.296C33.612 108.296 28.716 107.36 24.468 105.488C20.22 103.544 16.872 100.808 14.424 97.28C11.976 93.68 10.716 89.324 10.644 84.212H25.224C25.368 87.74 26.628 90.728 29.004 93.176C31.452 95.552 34.8 96.74 39.048 96.74C42.72 96.74 45.636 95.876 47.796 94.148C49.956 92.348 51.036 89.972 51.036 87.02C51.036 83.924 50.064 81.512 48.12 79.784C46.248 78.056 43.728 76.652 40.56 75.572C37.392 74.492 34.008 73.34 30.408 72.116C24.576 70.1 20.112 67.508 17.016 64.34C13.992 61.172 12.48 56.96 12.48 51.704C12.408 47.24 13.452 43.424 15.612 40.256C17.844 37.016 20.868 34.532 24.684 32.804C28.5 31.004 32.892 30.104 37.86 30.104C42.9 30.104 47.328 31.004 51.144 32.804C55.032 34.604 58.056 37.124 60.216 40.364C62.448 43.604 63.636 47.456 63.78 51.92H48.984C48.912 49.256 47.868 46.916 45.852 44.9C43.908 42.812 41.172 41.768 37.644 41.768C34.62 41.696 32.064 42.452 29.976 44.036C27.96 45.548 26.952 47.78 26.952 50.732C26.952 53.252 27.744 55.268 29.328 56.78C30.912 58.22 33.072 59.444 35.808 60.452C38.544 61.46 41.676 62.54 45.204 63.692C48.948 64.988 52.368 66.5 55.464 68.228C58.56 69.956 61.044 72.26 62.916 75.14C64.788 77.948 65.724 81.584 65.724 86.048C65.724 90.008 64.716 93.68 62.7 97.064C60.684 100.448 57.696 103.184 53.736 105.272C49.776 107.288 44.916 108.296 39.156 108.296Z" fill="#FD2155"/>
</svg>
