<svg width="32" height="32" viewBox="0 0 32 32" fill="none" xmlns="http://www.w3.org/2000/svg">
<g clip-path="url(#clip0_7_4)">
<path d="M14.2857 23.4286C14.2857 23.8832 14.4663 24.3193 14.7878 24.6408C15.1093 24.9622 15.5453 25.1429 16 25.1429C16.4547 25.1429 16.8907 24.9622 17.2122 24.6408C17.5337 24.3193 17.7143 23.8832 17.7143 23.4286C17.7143 22.9739 17.5337 22.5379 17.2122 22.2164C16.8907 21.8949 16.4547 21.7143 16 21.7143C15.5453 21.7143 15.1093 21.8949 14.7878 22.2164C14.4663 22.5379 14.2857 22.9739 14.2857 23.4286V23.4286ZM14.8571 12.5714V19.1429C14.8571 19.3 14.9857 19.4286 15.1429 19.4286H16.8571C17.0143 19.4286 17.1429 19.3 17.1429 19.1429V12.5714C17.1429 12.4143 17.0143 12.2857 16.8571 12.2857H15.1429C14.9857 12.2857 14.8571 12.4143 14.8571 12.5714ZM31.8464 28.2857L16.9893 2.57143C16.7679 2.18929 16.3857 2 16 2C15.6143 2 15.2286 2.18929 15.0107 2.57143L0.153572 28.2857C-0.285713 29.05 0.264287 30 1.14286 30H30.8571C31.7357 30 32.2857 29.05 31.8464 28.2857ZM3.86429 27.2893L16 6.28214L28.1357 27.2893H3.86429V27.2893Z" fill="black"/>
</g>
<defs>
<clipPath id="clip0_7_4">
<rect width="32" height="32" fill="white"/>
</clipPath>
</defs>
</svg>
