<svg width="32" height="32" viewBox="0 0 32 32" fill="none" xmlns="http://www.w3.org/2000/svg">
<g clip-path="url(#clip0_7_6)">
<path d="M22.6786 10.3214H21.0036C20.6393 10.3214 20.2929 10.4964 20.0786 10.7964L14.4643 18.5821L11.9214 15.0536C11.7071 14.7571 11.3643 14.5786 10.9964 14.5786H9.32143C9.08929 14.5786 8.95357 14.8429 9.08929 15.0321L13.5393 21.2036C13.6444 21.3503 13.783 21.4699 13.9435 21.5523C14.1041 21.6348 14.282 21.6778 14.4625 21.6778C14.643 21.6778 14.8209 21.6348 14.9815 21.5523C15.142 21.4699 15.2806 21.3503 15.3857 21.2036L22.9071 10.775C23.0464 10.5857 22.9107 10.3214 22.6786 10.3214V10.3214Z" fill="black"/>
<path d="M16 0C7.16429 0 0 7.16429 0 16C0 24.8357 7.16429 32 16 32C24.8357 32 32 24.8357 32 16C32 7.16429 24.8357 0 16 0ZM16 29.2857C8.66429 29.2857 2.71429 23.3357 2.71429 16C2.71429 8.66429 8.66429 2.71429 16 2.71429C23.3357 2.71429 29.2857 8.66429 29.2857 16C29.2857 23.3357 23.3357 29.2857 16 29.2857Z" fill="black"/>
</g>
<defs>
<clipPath id="clip0_7_6">
<rect width="32" height="32" fill="white"/>
</clipPath>
</defs>
</svg>
