<?xml version="1.0" encoding="utf-8"?>
<!-- Generator: Adobe Illustrator 18.1.1, SVG Export Plug-In . SVG Version: 6.00 Build 0)  -->
<svg version="1.1" baseProfile="basic" id="Layer_1"
	 xmlns="http://www.w3.org/2000/svg" xmlns:xlink="http://www.w3.org/1999/xlink" x="0px" y="0px" viewBox="0 0 258 235.3"
	 xml:space="preserve">
<g>
	<path fill="#FFFFFF" d="M129.3,0L33.9,163.6h190.9L129.3,0z M160.5,58.2l28,47.9l-41.9-23.8L160.5,58.2L160.5,58.2z M135.3,76
		L105,58.6l-3.2-1.6h55.9L135.3,76z M156.5,60.6l-12,20.6l-7.2-4L156.5,60.6z M111.8,65l22,12.7L119,90.4l-18.4-31.3L111.8,65z
		 M118.6,93.1L118.6,93.1l8.8,15.4H101l14-12.3L118.6,93.1z M120.2,91.5L120.2,91.5l11.2-9.9l4-3.6l4.8,2.8l3.2,2l-14.1,24.1
		L120.2,91.5z M145.3,84L145.3,84l42.7,24.6h-56.7L145.3,84z M188,110.5l-42.7,24.6l-14-24.6L188,110.5L188,110.5z M128.9,4.7
		L158,54.6H99.7L128.9,4.7z M97.4,59.4v38.4v10.3H68.6L97.4,59.4z M95.4,110.5l-17.6,15.4L69,110.5H95.4z M67,111.3L67,111.3
		l9.2,15.8l-16,13.9l-20.4,17.4L67,111.3z M96.6,162H38.7l37.5-32.5l1.2-0.8L96.6,162z M78.6,127.1L78.6,127.1L97,111.3v17.4v29.7
		L78.6,127.1z M99,59.4L99,59.4l18.4,31.7L99,106.9V89.5V59.4z M99,120.4v-10.3h28.3l-28.4,49.1v-38.8L99,120.4L99,120.4z M101,160
		l28.4-48.7l0,0l0,0l14,24.6L119,149.8L101,160z M101.8,162l42.7-24.2l14,24.2H101.8z M146.5,136.6l42.7-24.6l-24.4,41.6l-4,7.1
		L146.5,136.6z M180.8,130.3l10.8-18.6l14,24.2L163.3,160L180.8,130.3z M164.5,162l42.3-24.2l14,24.2H164.5z"/>
	<path fill="#FFFFFF" d="M0,221.8c0.8,0,2.4,0,3.6,0c1.6,0,2.8,0,3.6,0.8c0.8,0.4,1.6,1.2,1.6,2.4s-0.8,2.4-2,2.8l0,0
		c1.6,0.4,2.8,1.6,2.8,3.2c0,1.2-0.4,2-1.2,2.8C7.6,234.6,6,235,3.2,235c-1.6,0-2.4,0-3.2,0L0,221.8L0,221.8z M2.8,227h0.8
		c1.6,0,2.4-0.4,2.4-1.6c0-1.2-0.8-1.6-2-1.6c-0.4,0-0.8,0-1.2,0V227L2.8,227z M2.8,232.5c0.4,0,0.4,0,1.2,0c1.2,0,2.4-0.4,2.4-2
		s-1.2-2-2.8-2H2.8L2.8,232.5L2.8,232.5z"/>
	<path fill="#FFFFFF" d="M14.7,221.8v7.1c0,2.4,0.8,3.2,2.4,3.2c1.6,0,2.4-1.2,2.4-3.2v-7.1h2.8v7.1c0,4-2,5.9-5.2,5.9
		s-5.2-2-5.2-5.9v-7.1L14.7,221.8L14.7,221.8z"/>
	<path fill="#FFFFFF" d="M24.7,231.7c0.8,0.4,2,0.8,3.2,0.8c1.2,0,2-0.4,2-1.2c0-0.8-0.4-1.2-2-2c-2-0.8-3.6-2-3.6-3.6
		c0-2.4,2-3.6,4.8-3.6c1.6,0,2.4,0.4,3.2,0.4l-0.4,2.4c-0.4,0-1.6-0.4-2.8-0.4c-1.2,0-2,0.4-2,1.2c0,0.8,0.8,1.2,2.4,2
		c2.4,0.8,3.2,2,3.2,3.6c0,2-1.6,4-5.2,4c-1.6,0-2.8-0.4-3.6-0.8L24.7,231.7z"/>
	<rect x="35.1" y="221.8" fill="#FFFFFF" width="2.8" height="12.7"/>
	<path fill="#FFFFFF" d="M40.3,234.5v-12.7h3.2l2.8,4.8c0.8,1.2,1.6,3.2,2,4.4l0,0c0-1.6,0-3.2,0-5.5v-3.6h2.8v12.7h-3.2l-2.8-4.8
		c-0.8-1.2-1.6-3.2-2.4-4.4l0,0c0,1.6,0,3.6,0,5.5v4h-2.4V234.5z"/>
	<polygon fill="#FFFFFF" points="61.1,229.3 56.3,229.3 56.3,232.1 61.5,232.1 61.5,234.5 53.5,234.5 53.5,221.8 61.5,221.8 
		61.5,224.2 56.3,224.2 56.3,227 61.1,227 	"/>
	<path fill="#FFFFFF" d="M63.9,231.7c0.8,0.4,2,0.8,3.2,0.8s2-0.4,2-1.2c0-0.8-0.4-1.2-2-2c-2-0.8-3.6-2-3.6-3.6
		c0-2.4,2-3.6,4.8-3.6c1.6,0,2.4,0.4,3.2,0.4l-0.4,2.4c-0.4,0-1.6-0.4-2.8-0.4s-2,0.4-2,1.2c0,0.8,0.8,1.2,2.4,2
		c2.4,0.8,3.2,2,3.2,3.6c0,2-1.6,4-5.2,4c-1.6,0-2.8-0.4-3.6-0.8L63.9,231.7z"/>
	<path fill="#FFFFFF" d="M74.2,231.7c0.8,0.4,2,0.8,3.2,0.8s2-0.4,2-1.2c0-0.8-0.4-1.2-2-2c-2-0.8-3.6-2-3.6-3.6
		c0-2.4,2-3.6,4.8-3.6c1.6,0,2.4,0.4,3.2,0.4l-0.4,2.4c-0.4,0-1.6-0.4-2.8-0.4s-2,0.4-2,1.2c0,0.8,0.8,1.2,2.4,2
		c2.4,0.8,3.2,2,3.2,3.6c0,2-1.6,4-5.2,4c-1.6,0-2.8-0.4-3.6-0.8L74.2,231.7z"/>
	<path fill="#FFFFFF" d="M88.2,231.7c0.8,0.4,2,0.8,3.2,0.8s2-0.4,2-1.2c0-0.8-0.4-1.2-2-2c-2-0.8-3.6-2-3.6-3.6
		c0-2.4,2-3.6,4.8-3.6c1.6,0,2.4,0.4,3.2,0.4l-0.4,2.4c-0.4,0-1.6-0.4-2.8-0.4c-1.2,0-2,0.4-2,1.2c0,0.8,0.8,1.2,2.4,2
		c2.4,0.8,3.2,2,3.2,3.6c0,2-1.6,4-5.2,4c-1.6,0-2.8-0.4-3.6-0.8L88.2,231.7z"/>
	<path fill="#FFFFFF" d="M107.8,234.5c-0.4,0-1.6,0.4-3.2,0.4c-4.4,0-6.8-2.8-6.8-6.3c0-4.4,3.2-6.7,6.8-6.7c1.6,0,2.8,0.4,3.2,0.4
		l-0.4,2.4c-0.4,0-1.2-0.4-2.4-0.4c-2.4,0-4,1.2-4,4.4c0,2.8,1.6,4,4,4c0.8,0,2,0,2.4-0.4L107.8,234.5z"/>
	<polygon fill="#FFFFFF" points="112.6,221.8 112.6,226.6 117.8,226.6 117.8,221.8 120.6,221.8 120.6,234.5 117.8,234.5 
		117.8,229.3 112.6,229.3 112.6,234.5 109.8,234.5 109.8,221.8 	"/>
	<path fill="#FFFFFF" d="M134.5,228.1c0,4-2.4,6.7-6.4,6.7c-3.6,0-6-2.8-6-6.3c0-3.6,2.4-6.7,6.4-6.7
		C132.5,221.8,134.5,224.6,134.5,228.1 M125.3,228.1c0,2.4,1.2,4.4,3.2,4.4c2,0,3.2-2,3.2-4.4s-1.2-4.4-3.2-4.4
		C126.5,223.7,125.3,225.8,125.3,228.1"/>
	<path fill="#FFFFFF" d="M148.5,228.1c0,4-2.4,6.7-6.4,6.7c-3.6,0-6-2.8-6-6.3c0-3.6,2.4-6.7,6.4-6.7
		C146.1,221.8,148.5,224.6,148.5,228.1 M138.9,228.1c0,2.4,1.2,4.4,3.2,4.4c2,0,3.2-2,3.2-4.4s-1.2-4.4-3.2-4.4
		C140.1,223.8,138.9,225.8,138.9,228.1"/>
	<polygon fill="#FFFFFF" points="150.5,221.8 153.3,221.8 153.3,232.1 158.1,232.1 158.1,234.5 150.5,234.5 	"/>
	<path fill="#FFFFFF" d="M163.7,231.7c0.8,0.4,2,0.8,3.2,0.8s2-0.4,2-1.2c0-0.8-0.4-1.2-2-2c-2-0.8-3.6-2-3.6-3.6
		c0-2.4,2-3.6,4.8-3.6c1.6,0,2.4,0.4,3.2,0.4l-0.4,2.4c-0.4,0-1.6-0.4-2.8-0.4c-1.2,0-2,0.4-2,1.2c0,0.8,0.8,1.2,2.4,2
		c2.4,0.8,3.2,2,3.2,3.6c0,2-1.6,4-5.2,4c-1.6,0-2.8-0.4-3.6-0.8L163.7,231.7z"/>
	<rect x="174.1" y="221.8" fill="#FFFFFF" width="2.8" height="12.7"/>
	<path fill="#FFFFFF" d="M179.6,234.5v-12.7h3.2l2.8,4.8c0.8,1.2,1.6,3.2,2,4.4l0,0c0-1.6,0-3.2,0-5.5v-3.6h2.8v12.7h-3.2l-2.8-4.8
		c-0.8-1.2-1.6-3.2-2.4-4.4l0,0c0,1.6,0,3.6,0,5.5v4h-2.4V234.5z"/>
	<path fill="#FFFFFF" d="M202,234.5c-0.4,0-1.6,0.4-3.2,0.4c-4.4,0-6.8-2.8-6.8-6.3c0-4.4,3.2-6.7,6.8-6.7c1.6,0,2.8,0.4,3.2,0.4
		l-0.4,2.4c-0.4,0-1.2-0.4-2.4-0.4c-2.4,0-4,1.2-4,4.4c0,2.8,1.6,4,4,4c0.8,0,2,0,2.4-0.4L202,234.5z"/>
	<polygon fill="#FFFFFF" points="211.6,229.3 206.8,229.3 206.8,232.1 212.4,232.1 212.4,234.5 204,234.5 204,221.8 212,221.8 
		212,224.2 206.8,224.2 206.8,227 211.6,227 	"/>
	<polygon fill="#FFFFFF" points="221.2,225 221.2,225 219.2,225.8 218.4,223.8 222,222.2 224,222.2 224,234.5 221.2,234.5 	"/>
	<path fill="#FFFFFF" d="M229.2,232.5c0.4,0,0.8,0,1.2,0c0.8,0,2-0.4,2.4-0.8c0.8-0.4,1.2-1.2,1.6-2.4l0,0c-0.4,0.4-1.2,0.8-2.4,0.8
		c-2,0-3.6-1.6-3.6-4c0-2.4,2-4.4,4.8-4.4c3.2,0,4.8,2.4,4.8,5.1s-0.8,4.4-2.4,5.5c-1.2,1.2-2.8,1.6-4.8,1.6c-0.4,0-0.8,0-1.2,0
		L229.2,232.5L229.2,232.5z M230.8,226.2c0,1.2,0.4,2,1.6,2c0.8,0,1.2-0.4,1.6-0.8c0,0,0-0.4,0-0.8c0-1.2-0.4-2.8-2-2.8
		C231.6,224.2,230.8,225,230.8,226.2"/>
	<path fill="#FFFFFF" d="M239.5,232.5c0.4,0,0.8,0,1.2,0c0.8,0,2-0.4,2.4-0.8c0.8-0.4,1.2-1.2,1.6-2.4l0,0c-0.4,0.4-1.2,0.8-2.4,0.8
		c-2,0-3.6-1.6-3.6-4c0-2.4,2-4.4,4.8-4.4c3.2,0,4.8,2.4,4.8,5.1s-0.8,4.4-2.4,5.5c-1.2,1.2-2.8,1.6-4.8,1.6c-0.4,0-0.8,0-1.2,0
		L239.5,232.5L239.5,232.5z M241.5,226.2c0,1.2,0.4,2,1.6,2c0.8,0,1.2-0.4,1.6-0.8c0,0,0-0.4,0-0.8c0-1.2-0.4-2.8-2-2.8
		C242.3,224.2,241.5,225,241.5,226.2"/>
	<path fill="#FFFFFF" d="M250,231.7c0.4,0.4,1.6,0.8,2.8,0.8c1.6,0,2.4-0.8,2.4-1.6c0-1.2-1.2-2-2.4-2h-1.2v-2h1.2
		c0.8,0,2.4-0.4,2.4-1.6c0-0.8-0.4-1.2-2-1.2c-0.8,0-2,0.4-2.8,0.8l-0.4-2c0.8-0.4,2.4-0.8,3.6-0.8c2.8,0,4,1.2,4,3.2
		c0,1.2-0.8,2.4-2.4,2.8l0,0c1.6,0,2.8,1.2,2.8,3.2c0,2.4-2,3.6-5.2,3.6c-1.6,0-3.2-0.4-3.6-0.8L250,231.7z"/>
	<polygon fill="#FFFFFF" points="24.7,171.9 27.9,184.6 27.9,184.6 30.7,171.9 35.5,171.9 35.5,187.7 32.7,187.7 32.7,174.3 
		32.7,174.3 29.5,187.7 25.9,187.7 22.7,174.3 22.7,174.3 22.7,187.7 19.5,187.7 19.5,171.9 	"/>
	<polygon fill="#FFFFFF" points="57.1,171.9 62.3,178.2 62.3,171.9 65,171.9 65,178.2 70.2,171.9 74.6,171.9 69,178.6 74.6,187.7 
		70.6,187.7 66.6,180.6 65,182.6 65,187.7 62.3,187.7 62.3,182.6 61.1,180.6 56.7,187.7 52.7,187.7 58.7,178.6 53.1,171.9 	"/>
	<polygon fill="#FFFFFF" points="111.8,177.8 117.8,177.8 117.8,171.9 121.4,171.9 121.4,187.7 117.8,187.7 117.8,180.6 
		111.8,180.6 111.8,187.7 108.2,187.7 108.2,171.9 111.8,171.9 	"/>
	<path fill="#FFFFFF" d="M133.3,171.9l5.6,16.2h-3.6l-1.2-3.2h-6l-1.2,3.2h-3.2l5.6-16.2H133.3z M129.3,181.8h4.4l-2.4-6.3l0,0
		L129.3,181.8z"/>
	<path fill="#FFFFFF" d="M143.7,187.7h-3.2v-16.2h7.2c3.2,0,4.8,2,4.8,5.1c0,1.6-0.8,5.1-5.2,5.1h-4L143.7,187.7L143.7,187.7z
		 M143.7,179.4h3.2c2.4,0,2.4-1.6,2.4-2.4c0-1.6-0.8-2.4-3.2-2.4h-2.8v4.8L143.7,179.4L143.7,179.4z"/>
	<path fill="#FFFFFF" d="M162.1,171.1c2,0,7.6,0.8,7.6,8.3s-5.6,8.3-7.6,8.3s-7.6-0.8-7.6-8.3C154.5,171.9,160.1,171.1,162.1,171.1
		 M162.1,185c2,0,4.4-1.2,4.4-5.5c0-4.3-2.8-5.5-4.4-5.5c-2,0-4.4,1.2-4.4,5.5S160.5,185,162.1,185"/>
	<path fill="#FFFFFF" d="M91,171.5V183h1.6v5.1h-3.2v-2.4h-9.6v2.4h-3.2V183h1.6c1.6-2.4,1.2-4,1.2-7.9v-3.2L91,171.5L91,171.5z
		 M87.8,182.6v-8.7H83v0.8c0,4,0,5.5-1.2,7.9H87.8z"/>
	<path fill="#FFFFFF" d="M185.6,171.5V183h1.6v5.1H184v-2.4h-9.6v2.4h-3.1V183h1.6c1.6-2.4,1.2-4,1.2-7.9v-3.2L185.6,171.5
		L185.6,171.5z M182.4,182.6v-8.7h-4.8v0.8c0,4,0,5.5-1.2,7.9H182.4z"/>
	<polygon fill="#FFFFFF" points="192.8,177.8 199.2,177.8 199.2,171.9 202.4,171.9 202.4,187.7 199.2,187.7 199.2,180.6 
		192.8,180.6 192.8,187.7 189.2,187.7 189.2,171.9 192.8,171.9 	"/>
	<polygon fill="#FFFFFF" points="227.6,183 227.6,183 234,171.9 237.5,171.9 237.5,187.7 234.4,187.7 234.4,176.3 234.4,176.3 
		227.6,187.7 224,187.7 224,171.9 227.6,171.9 	"/>
	<path fill="#FFFFFF" d="M230.8,168.7c2,0,2-0.8,2.4-1.6h1.6c0,0.8-0.8,3.2-3.6,3.2c-2.8,0-3.6-2.4-3.6-3.2h1.6
		C228.8,167.5,229.2,168.7,230.8,168.7"/>
	<path fill="#FFFFFF" d="M96.6,171.5l3.6,8.7l3.2-8.7h3.6l-5.6,13.5c-1.2,2.4-2.4,2.8-3.6,2.8c-0.8,0-2,0-2.4,0V185
		c0.4,0,1.2,0,1.6,0c0.8,0,1.2,0,1.6-1.2l-6-12.3H96.6L96.6,171.5z"/>
	<path fill="#FFFFFF" d="M208.4,177.4h4c4.4,0,5.2,3.6,5.2,5.1c0,3.2-2,5.1-4.8,5.1h-7.2v-16.2h3.2L208.4,177.4L208.4,177.4z
		 M208.4,185h2.8c2,0,3.2-0.8,3.2-2.4c0-0.8-0.4-2.4-2.4-2.4h-3.6V185z"/>
	<rect x="218.4" y="171.9" fill="#FFFFFF" width="3.2" height="15.8"/>
	<polygon fill="#FFFFFF" points="50.3,171.9 50.3,174.7 41.9,174.7 41.9,177.8 49.5,177.8 49.5,180.6 41.9,180.6 41.9,185 50.7,185 
		50.7,187.7 38.7,187.7 38.7,171.9 	"/>
	<path fill="#FFFFFF" d="M236.4,196.8L242,213h-3.7l-1.2-3.2h-6l-1.2,3.2h-3.6l5.6-16.2H236.4z M232.8,206.8h4.4l-2.4-6.3l0,0
		L232.8,206.8z"/>
	<polygon fill="#FFFFFF" points="18.7,207.9 18.7,207.9 25.1,196.8 28.7,196.8 28.7,212.7 25.5,212.7 25.5,201.6 25.5,201.6 
		18.7,212.7 15.1,212.7 15.1,196.8 18.7,196.8 	"/>
	<polygon fill="#FFFFFF" points="34.7,202.8 41.1,202.8 41.1,196.8 44.3,196.8 44.3,212.7 41.1,212.7 41.1,205.6 34.7,205.6 
		34.7,212.7 31.5,212.7 31.5,196.8 34.7,196.8 	"/>
	<path fill="#FFFFFF" d="M57.1,202c0-0.8-0.8-2.8-3.6-2.8c-1.6,0-4,1.2-4,5.5c0,2.8,1.2,5.5,4,5.5c2,0,3.2-1.2,3.6-3.2h3.2
		c-0.8,3.2-3.2,5.9-6.8,5.9c-4.4,0-7.2-2.8-7.2-8.3c0-5.5,3.2-8.3,7.2-8.3c4.8,0,6.8,3.2,6.8,5.5L57.1,202L57.1,202z"/>
	<polygon fill="#FFFFFF" points="68.6,212.7 65.4,212.7 65.4,199.6 60.7,199.6 60.7,196.8 73.4,196.8 73.4,199.6 68.6,199.6 	"/>
	<polygon fill="#FFFFFF" points="77.8,207.9 77.8,207.9 84.2,196.8 87.8,196.8 87.8,212.7 84.6,212.7 84.6,201.6 84.6,201.6 
		78.2,212.7 74.6,212.7 74.6,196.8 77.8,196.8 	"/>
	<polygon fill="#FFFFFF" points="156.9,207.9 156.9,207.9 163.3,196.8 166.9,196.8 166.9,212.7 163.7,212.7 163.7,201.6 
		163.7,201.6 156.9,212.7 153.3,212.7 153.3,196.8 156.9,196.8 	"/>
	<polygon fill="#FFFFFF" points="97.4,212.7 94.2,212.7 94.2,199.6 89,199.6 89,196.8 102.2,196.8 102.2,199.6 97.4,199.6 	"/>
	<path fill="#FFFFFF" d="M106.6,196.5l3.6,8.7l3.2-8.7h3.6l-5.6,13.5c-1.2,2.4-2.4,2.8-3.6,2.8c-0.4,0-2,0-2.4,0v-2.9
		c0.4,0,1.2,0,1.6,0c0.8,0,1.2,0,1.6-1.2l-6-12.3L106.6,196.5L106.6,196.5z"/>
	<polygon fill="#FFFFFF" points="125.7,212.7 122.5,212.7 122.5,199.6 117.8,199.6 117.8,196.8 130.9,196.8 130.9,199.6 
		125.7,199.6 	"/>
	<path fill="#FFFFFF" d="M150.1,196.8v2.8h-8.4v3.2h4c3.2,0,5.6,2,5.6,5.1s-2.4,4.8-5.6,4.8h-7.6v-15.8L150.1,196.8L150.1,196.8z
		 M141.7,209.9h3.6c1.6,0,2.4-0.8,2.4-2.4c0-1.2-0.8-2-2.4-2h-3.6V209.9z"/>
	<path fill="#FFFFFF" d="M168.9,201.2c0-2.8,2-5.1,6.4-5.1s6,2.4,6,4c0,2-1.2,3.2-2.8,3.6c1.6,0.4,3.2,1.6,3.2,4
		c0,2.4-2,4.8-6.4,4.8c-5.6,0-6.8-2.8-6.8-5.1h3.2c0,1.2,0.4,2.8,3.2,2.8c2,0,3.2-0.8,3.2-2.4c0-1.6-1.2-2.4-3.2-2.4h-1.6v-2.8h1.6
		c1.6,0,2.8-0.8,2.8-2s-1.2-2-2.8-2c-2.4,0-3.2,0.8-3.2,2.4L168.9,201.2L168.9,201.2z"/>
	<polygon fill="#FFFFFF" points="187.2,202.8 193.2,202.8 193.2,196.8 196.4,196.8 196.4,212.7 193.2,212.7 193.2,205.6 
		187.2,205.6 187.2,212.7 183.6,212.7 183.6,196.8 187.2,196.8 	"/>
	<polygon fill="#FFFFFF" points="211.2,196.8 211.2,199.6 202.8,199.6 202.8,202.8 210.4,202.8 210.4,205.6 202.8,205.6 
		202.8,209.9 211.6,209.9 211.6,212.7 199.2,212.7 199.2,196.8 	"/>
	<path fill="#FFFFFF" d="M223.2,202c0-0.8-0.8-2.8-3.6-2.8c-1.6,0-4,1.2-4,5.5c0,2.8,1.2,5.5,4,5.5c2,0,3.2-1.2,3.6-3.2h3.2
		c-0.8,3.2-3.2,5.9-6.8,5.9c-4.4,0-7.2-2.8-7.2-8.3c0-5.5,3.2-8.3,7.2-8.3c4.8,0,6.8,3.2,6.8,5.5L223.2,202L223.2,202z"/>
</g>
</svg>
